<svg width="12" height="12" viewBox="0 0 12 12" fill="none" xmlns="http://www.w3.org/2000/svg">
<g clip-path="url(#clip0_15_99)">
<path d="M6 0C9.31368 0 12 2.68629 12 6C12 9.31368 9.31368 12 6 12C2.68629 12 0 9.31368 0 6C0 2.68629 2.68629 0 6 0ZM6 0.9C3.18335 0.9 0.9 3.18335 0.9 6C0.9 8.81664 3.18335 11.1 6 11.1C8.81664 11.1 11.1 8.81664 11.1 6C11.1 3.18335 8.81664 0.9 6 0.9ZM5.25 6.86358L7.93182 4.1818C8.10756 4.00607 8.39244 4.00607 8.56818 4.1818C8.72796 4.34156 8.74248 4.59156 8.61174 4.76773L8.56818 4.81818L5.56818 7.81818C5.40846 7.97796 5.15844 7.99248 4.98228 7.86174L4.93182 7.81818L3.4318 6.31818C3.25607 6.14244 3.25607 5.85756 3.4318 5.68182C3.59156 5.52204 3.84156 5.50752 4.01773 5.63826L4.0682 5.68182L5.25 6.86358Z" fill="#0088FF"/>
</g>
<defs>
<clipPath id="clip0_15_99">
<rect width="12" height="12" fill="white"/>
</clipPath>
</defs>
</svg>
