<svg width="32" height="32" viewBox="0 0 32 32" fill="none" xmlns="http://www.w3.org/2000/svg">
<path d="M6.66667 13.3333C6.66667 9.65144 9.65144 6.66667 13.3333 6.66667C17.0152 6.66667 20 9.65144 20 13.3333C20 17.0152 17.0152 20 13.3333 20C9.65144 20 6.66667 17.0152 6.66667 13.3333ZM13.3333 4C8.17868 4 4 8.17868 4 13.3333C4 18.488 8.17868 22.6667 13.3333 22.6667C15.4297 22.6667 17.3648 21.9755 18.9229 20.8085L25.7239 27.6095C26.2445 28.1301 27.0888 28.1301 27.6095 27.6095C28.1301 27.0888 28.1301 26.2445 27.6095 25.7239L20.8085 18.9229C21.9755 17.3648 22.6667 15.4297 22.6667 13.3333C22.6667 8.17868 18.488 4 13.3333 4Z" fill="#0088FF"/>
</svg>
